<svg xmlns="http://www.w3.org/2000/svg" xmlns:xlink="http://www.w3.org/1999/xlink" width="500" zoomAndPan="magnify" viewBox="0 0 375 374.999991" height="500" preserveAspectRatio="xMidYMid meet" version="1.2"><defs/><g id="8d9dfee02c"><g style="fill:#ffffff;fill-opacity:1;"><g transform="translate(16.929707, 306.492514)"><path style="stroke:none" d="M 196.03125 -3.75 C 196.445312 -2.914062 196.34375 -2.082031 195.71875 -1.25 C 195.09375 -0.414062 194.257812 0 193.21875 0 L 150.140625 0 C 148.691406 0 147.757812 -0.625 147.34375 -1.875 L 98.015625 -141.09375 L 49.328125 -1.875 C 49.117188 -0.625 48.078125 0 46.203125 0 L 3.4375 0 C 1.976562 0 0.988281 -0.414062 0.46875 -1.25 C -0.0507812 -2.082031 -0.101562 -2.914062 0.3125 -3.75 L 94.890625 -247.859375 C 95.304688 -249.097656 96.347656 -249.71875 98.015625 -249.71875 C 99.679688 -249.71875 100.722656 -249.097656 101.140625 -247.859375 Z M 196.03125 -3.75 "/></g></g><g style="fill:#ffffff;fill-opacity:1;"><g transform="translate(175.269243, 305.449546)"><path style="stroke:none" d="M 130.171875 -203.21875 L 178.234375 -203.21875 L 100.203125 -1.5625 C 99.785156 -0.519531 98.847656 0 97.390625 0 C 95.929688 0 94.890625 -0.519531 94.265625 -1.5625 L 0.3125 -245.984375 C -0.101562 -247.023438 -0.0507812 -247.90625 0.46875 -248.625 C 0.988281 -249.351562 1.875 -249.71875 3.125 -249.71875 L 45.578125 -249.71875 C 47.453125 -249.71875 48.492188 -249.097656 48.703125 -247.859375 L 97.390625 -111.75 Z M 130.171875 -203.21875 "/></g></g></g></svg>